<svg xmlns="http://www.w3.org/2000/svg" xmlns:xlink="http://www.w3.org/1999/xlink" version="1.1" x="0px" y="0px" viewBox="0 0 100 100" style="enable-background:new 0 0 100 100;" xml:space="preserve">
  <defs>
    <style>.base{fill:#6099A6;}</style>
  </defs>
  <path class="base"  d="M90,23.5332031C90,16.0712891,83.9291992,10,76.4667969,10c-7.1243896,0-12.9668579,5.5380859-13.4820557,12.5332031  H37.0152588C36.500061,15.5380859,30.6575928,10,23.5332031,10C16.0708008,10,10,16.0712891,10,23.5332031  c0,7.1243896,5.5377197,12.9672852,12.5332031,13.4825439v25.9685059C15.5377197,63.4995117,10,69.3424072,10,76.4667969  C10,83.9287109,16.0708008,90,23.5332031,90c7.1243896,0,12.9668579-5.5380859,13.4820557-12.5332031h25.9694824  C63.499939,84.4619141,69.3424072,90,76.4667969,90C83.9291992,90,90,83.9287109,90,76.4667969  c0-7.1243896-5.5377197-12.9672852-12.5332031-13.4825439V37.0157471C84.4622803,36.5004883,90,30.6575928,90,23.5332031z   M62.9847412,75.4667969H37.0152588c-0.4907837-6.6636963-5.8184204-11.9916992-12.4820557-12.4825439V37.0157471  c6.6636353-0.4908447,11.991272-5.8188477,12.4820557-12.4825439h25.9694824  c0.4907837,6.6636963,5.8184204,11.9916992,12.4820557,12.4825439v25.9685059  C68.8031616,63.4750977,63.4755249,68.8031006,62.9847412,75.4667969z M19.7817383,20.3095703  c0-2.0986328,1.7075195-3.8066406,3.8066406-3.8066406s3.8066406,1.7080078,3.8066406,3.8066406  s-1.7075195,3.8066406-3.8066406,3.8066406S19.7817383,22.4082031,19.7817383,20.3095703z M23.5332031,35.0664062  c-2.5681152,0-4.9348145-0.854126-6.8535767-2.2789917c0.1329346-3.7001953,3.1766357-6.6712036,6.9087524-6.6712036  c3.7052612,0,6.730957,2.9285889,6.9046631,6.5915527C28.5560303,34.1809692,26.1489868,35.0664062,23.5332031,35.0664062z   M72.7158203,20.3095703c0-2.0986328,1.7075195-3.8066406,3.8066406-3.8066406s3.8066406,1.7080078,3.8066406,3.8066406  s-1.7075195,3.8066406-3.8066406,3.8066406S72.7158203,22.4082031,72.7158203,20.3095703z M69.6137085,32.7876587  c0.1328125-3.7002563,3.1765747-6.6714478,6.9087524-6.6714478c3.7051392,0,6.730835,2.9284668,6.9046631,6.5913086  c-1.9371338,1.4733276-4.3444214,2.3588867-6.9603271,2.3588867C73.8988037,35.0664062,71.5323486,34.2123413,69.6137085,32.7876587  z M76.4667969,12C82.8261719,12,88,17.1738281,88,23.5332031c0,2.8644409-1.0560913,5.4825439-2.7910156,7.5014648  c-0.6376343-2.7653198-2.5595093-5.041748-5.1062622-6.1627808c1.3528442-1.0639648,2.2263794-2.7113647,2.2263794-4.5623169  c0-3.2021484-2.6049805-5.8066406-5.8066406-5.8066406s-5.8066406,2.6044922-5.8066406,5.8066406  c0,1.8509521,0.8735352,3.4983521,2.2263794,4.5623169c-2.5762329,1.1340332-4.5159912,3.4492188-5.1307373,6.2579346  c-1.7851562-2.0315552-2.8773804-4.6859741-2.8773804-7.5966187C64.934082,17.1738281,70.1074219,12,76.4667969,12z M12,23.5332031  C12,17.1738281,17.1738281,12,23.5332031,12S35.065918,17.1738281,35.065918,23.5332031  c0,2.864563-1.0560913,5.4827271-2.7910156,7.5016479c-0.6376343-2.7653809-2.5594482-5.0418701-5.1062622-6.1629639  c1.3528442-1.0639648,2.2263794-2.7113647,2.2263794-4.5623169c0-3.2021484-2.6049805-5.8066406-5.8066406-5.8066406  s-5.8066406,2.6044922-5.8066406,5.8066406c0,1.8509521,0.8735352,3.4983521,2.2263794,4.5623169  c-2.5761719,1.1340332-4.5159912,3.4491577-5.1307373,6.2577515C13.0922241,29.0981445,12,26.4437256,12,23.5332031z   M16.6796875,85.7210693c0.1334229-3.6998901,3.1768799-6.6712646,6.9086914-6.6712646  c3.704895,0,6.7305298,2.9290161,6.9046631,6.5915527C28.5560913,87.114502,26.1489868,88,23.5332031,88  C20.9650879,88,18.5984497,87.1459351,16.6796875,85.7210693z M19.7817383,73.2431641  c0-2.0986328,1.7075195-3.8066406,3.8066406-3.8066406s3.8066406,1.7080078,3.8066406,3.8066406  s-1.7075195,3.8066406-3.8066406,3.8066406S19.7817383,75.3417969,19.7817383,73.2431641z M32.2747803,83.9685669  c-0.6377563-2.765625-2.5595093-5.0420532-5.1061401-6.1630859c1.3528442-1.0639648,2.2263794-2.7113647,2.2263794-4.5623169  c0-3.2021484-2.6049805-5.8066406-5.8066406-5.8066406s-5.8066406,2.6044922-5.8066406,5.8066406  c0,1.8509521,0.8735352,3.4983521,2.2263794,4.5623169c-2.5760498,1.1339722-4.5157471,3.4491577-5.1306152,6.2579346  C13.0922852,82.0319214,12,79.3773804,12,76.4667969c0-6.359375,5.1738281-11.5332031,11.5332031-11.5332031  S35.065918,70.1074219,35.065918,76.4667969C35.065918,79.3314209,34.0097656,81.949585,32.2747803,83.9685669z   M69.6137695,85.7213135c0.1333618-3.6999512,3.1768188-6.6715088,6.9086914-6.6715088  c3.704834,0,6.7303467,2.928894,6.9046021,6.5913696C81.4899292,87.114502,79.0827026,88,76.4667969,88  C73.8988037,88,71.5324097,87.1460571,69.6137695,85.7213135z M72.7158203,73.2431641  c0-2.0986328,1.7075195-3.8066406,3.8066406-3.8066406s3.8066406,1.7080078,3.8066406,3.8066406  s-1.7075195,3.8066406-3.8066406,3.8066406S72.7158203,75.3417969,72.7158203,73.2431641z M88,76.4667969  c0,2.864563-1.0560913,5.482666-2.7911377,7.5015869c-0.6378174-2.7655029-2.5595703-5.0418701-5.1061401-6.1629028  c1.3528442-1.0639648,2.2263794-2.7113647,2.2263794-4.5623169c0-3.2021484-2.6049805-5.8066406-5.8066406-5.8066406  s-5.8066406,2.6044922-5.8066406,5.8066406c0,1.8509521,0.8735352,3.4983521,2.2263794,4.5623169  c-2.5761108,1.1340332-4.5157471,3.4492188-5.1306152,6.2581177c-1.7852173-2.0315552-2.8775024-4.6860962-2.8775024-7.5968018  c0-6.359375,5.1733398-11.5332031,11.5327148-11.5332031S88,70.1074219,88,76.4667969z" />
</svg>
