<svg xmlns="http://www.w3.org/2000/svg" xmlns:xlink="http://www.w3.org/1999/xlink" version="1.1" x="0px" y="0px" viewBox="0 0 100 125" style="enable-background:new 0 0 100 100;" xml:space="preserve">
    <symbol viewBox="-14.821 -32.984 29.644 65.967">
        <g>
            <path style="" d="M3.372,9.536h-6.744    c-4.372,0-7.95-3.577-7.95-7.95v-11.902c0-2.108,1.725-3.832,3.832-3.832h0.418v-11.503c0-2.108,1.725-3.832,3.832-3.832h6.478    c2.108,0,3.832,1.725,3.832,3.832v11.503H7.49c2.108,0,3.832,1.725,3.832,3.832V1.586C11.322,5.959,7.745,9.536,3.372,9.536z" fill="#6099A6" stroke="#6099A6" stroke-width="7" stroke-miterlimit="3" />
            <path style="" d="M0.75,14.209h-1.5    c-3.365,0-6.118,2.753-6.118,6.118v3.038c0,3.365,2.753,6.118,6.118,6.118h1.5c3.365,0,6.118-2.753,6.118-6.118v-3.038    C6.868,16.962,4.115,14.209,0.75,14.209z" fill="#6099A6" stroke="#6099A6" stroke-width="7" stroke-miterlimit="3" />
        </g>
        <g>
            <g>
                <path d="M-3.238-28.484c-1.562,0-2.832,1.271-2.832,2.832v12.503h-1.418c-1.562,0-2.832,1.271-2.832,2.832V1.586     c0,3.832,3.118,6.95,6.95,6.95h6.744c3.832,0,6.95-3.118,6.95-6.95v-11.902c0-1.562-1.271-2.832-2.832-2.832H6.072v-12.503     c0-1.562-1.271-2.832-2.832-2.832H-3.238z" />
                <path d="M3.373,7.536c3.281,0,5.95-2.669,5.95-5.95v-11.902c0-1.01-0.822-1.833-1.833-1.833H7.072h-2v-2v-11.503     c0-1.01-0.822-1.833-1.833-1.833h-6.478c-1.01,0-1.833,0.822-1.833,1.833v11.503v2h-2h-0.418c-1.01,0-1.833,0.822-1.833,1.833     V1.586c0,3.281,2.669,5.95,5.95,5.95H3.373 M3.373,9.536h-6.744c-4.373,0-7.95-3.578-7.95-7.95v-11.902     c0-2.108,1.725-3.833,3.833-3.833h0.418v-11.503c0-2.108,1.725-3.833,3.833-3.833h6.478c2.108,0,3.833,1.725,3.833,3.833v11.503     H7.49c2.108,0,3.833,1.725,3.833,3.833V1.586C11.322,5.958,7.745,9.536,3.373,9.536L3.373,9.536z" />
            </g>
            <g>
                <path d="M-0.749,15.209c-2.822,0-5.118,2.296-5.118,5.118v3.038c0,2.822,2.296,5.118,5.118,5.118h1.5     c2.822,0,5.118-2.296,5.118-5.118v-3.038c0-2.822-2.296-5.118-5.118-5.118H-0.749z" />
                <path d="M0.75,27.483c2.271,0,4.118-1.847,4.118-4.118v-3.038c0-2.271-1.847-4.118-4.118-4.118h-1.5     c-2.271,0-4.118,1.847-4.118,4.118v3.038c0,2.271,1.847,4.118,4.118,4.118H0.75 M0.75,29.483h-1.5     c-3.365,0-6.118-2.753-6.118-6.118v-3.038c0-3.365,2.753-6.118,6.118-6.118h1.5c3.365,0,6.118,2.753,6.118,6.118v3.038     C6.868,26.73,4.115,29.483,0.75,29.483L0.75,29.483z" />
            </g>
        </g>
    </symbol>
    <symbol viewBox="-13.754 -32.379 27.509 60.818">
        <g>
            <path style="" d="M6.112,10.396H-6.112    c-2.003,0-3.643-1.639-3.643-3.643V-8.431c0-1.816,1.486-3.302,3.302-3.302h0.36v-13.344c0-1.816,1.486-3.302,3.302-3.302H2.79    c1.816,0,3.302,1.486,3.302,3.302v13.344h0.36c1.816,0,3.302,1.486,3.302,3.302V6.753C9.755,8.757,8.115,10.396,6.112,10.396z" fill="#6099A6" stroke="#6099A6" stroke-width="8" stroke-miterlimit="3" />
            <g>
                <path style="" d="M-0.646,19.28c-0.689,0-1.271,0.582-1.271,1.271v2.617c0,0.689,0.582,1.271,1.271,1.271h1.292     c0.689,0,1.271-0.582,1.271-1.271v-2.617c0-0.689-0.582-1.271-1.271-1.271H-0.646z" fill="#6099A6" />
                <path style="" d="M0.646,28.439h-1.292c-2.899,0-5.271-2.372-5.271-5.271v-2.617c0-2.899,2.372-5.271,5.271-5.271     h1.292c2.899,0,5.271,2.372,5.271,5.271v2.617C5.917,26.068,3.545,28.439,0.646,28.439L0.646,28.439z" fill="#6099A6" />
            </g>
        </g>
        <g>
            <path style="" d="M6.112,10.396H-6.112c-2.003,0-3.643-1.639-3.643-3.643V-8.431    c0-1.816,1.486-3.302,3.302-3.302h0.36v-13.344c0-1.816,1.486-3.302,3.302-3.302H2.79c1.816,0,3.302,1.486,3.302,3.302v13.344    h0.36c1.816,0,3.302,1.486,3.302,3.302V6.753C9.755,8.757,8.115,10.396,6.112,10.396z" stroke="#6099A6" stroke-miterlimit="10" />
            <g>
                <path d="M-0.646,15.78c-2.631,0-4.771,2.14-4.771,4.771v2.617c0,2.631,2.14,4.771,4.771,4.771h1.292     c2.631,0,4.771-2.14,4.771-4.771v-2.617c0-2.631-2.14-4.771-4.771-4.771H-0.646z" />
                <path style="" d="M0.646,27.439c2.355,0,4.271-1.916,4.271-4.271v-2.617c0-2.355-1.916-4.271-4.271-4.271h-1.292     c-2.355,0-4.271,1.916-4.271,4.271v2.617c0,2.355,1.916,4.271,4.271,4.271H0.646 M0.646,28.439h-1.292     c-2.899,0-5.271-2.372-5.271-5.271v-2.617c0-2.899,2.372-5.271,5.271-5.271h1.292c2.899,0,5.271,2.372,5.271,5.271v2.617     C5.917,26.068,3.545,28.439,0.646,28.439L0.646,28.439z" fill="#6099A6" />
            </g>
        </g>
    </symbol>
    <symbol viewBox="-14.321 -32.483 28.644 64.967">
        <g>
            <path style="" d="M3.373,9.536h-6.744    c-4.372,0-7.95-3.577-7.95-7.95v-11.902c0-2.108,1.725-3.832,3.832-3.832h0.418v-11.503c0-2.108,1.725-3.832,3.832-3.832h6.478    c2.108,0,3.832,1.725,3.832,3.832v11.503H7.49c2.108,0,3.832,1.725,3.832,3.832V1.586C11.323,5.959,7.745,9.536,3.373,9.536z" fill="#6099A6" stroke="#6099A6" stroke-width="6" stroke-miterlimit="3" />
            <path style="" d="M0.75,14.209h-1.5    c-3.365,0-6.118,2.753-6.118,6.118v3.038c0,3.365,2.753,6.118,6.118,6.118h1.5c3.365,0,6.118-2.753,6.118-6.118v-3.038    C6.868,16.962,4.115,14.209,0.75,14.209z" fill="#6099A6" stroke="#6099A6" stroke-width="6" stroke-miterlimit="3" />
        </g>
        <g>
            <g>
                <path d="M-3.238-27.483c-1.01,0-1.832,0.822-1.832,1.832v13.503h-2.418c-1.01,0-1.832,0.822-1.832,1.832V1.586     c0,3.281,2.669,5.95,5.95,5.95h6.744c3.281,0,5.95-2.669,5.95-5.95v-11.902c0-1.01-0.822-1.832-1.832-1.832H5.072v-13.503     c0-1.01-0.822-1.832-1.832-1.832H-3.238z" />
                <path d="M3.373,5.536c2.178,0,3.95-1.772,3.95-3.95v-11.734H7.072h-4v-4v-11.335h-6.143v11.335v4h-4h-0.25V1.586     c0,2.178,1.772,3.95,3.95,3.95H3.373 M3.373,9.536h-6.744c-4.372,0-7.95-3.577-7.95-7.95v-11.902     c0-2.108,1.725-3.833,3.833-3.833h0.418v-11.503c0-2.108,1.725-3.833,3.833-3.833h6.478c2.108,0,3.833,1.725,3.833,3.833v11.503     H7.49c2.107,0,3.833,1.725,3.833,3.833V1.586C11.323,5.959,7.745,9.536,3.373,9.536L3.373,9.536z" />
            </g>
            <g>
                <path d="M-0.674,16.973c-1.933,0-3.506,1.573-3.506,3.506v2.734c0,1.933,1.573,3.506,3.506,3.506h1.35     c1.933,0,3.506-1.573,3.506-3.506v-2.734c0-1.933-1.573-3.506-3.506-3.506H-0.674z" />
                <path d="M0.675,24.719c0.816,0,1.506-0.689,1.506-1.506v-2.734c0-0.816-0.69-1.506-1.506-1.506h-1.35     c-0.816,0-1.506,0.689-1.506,1.506v2.734c0,0.816,0.689,1.506,1.506,1.506H0.675 M0.675,28.719h-1.35     c-3.028,0-5.506-2.478-5.506-5.506v-2.734c0-3.028,2.478-5.506,5.506-5.506h1.35c3.028,0,5.506,2.478,5.506,5.506v2.734     C6.182,26.242,3.704,28.719,0.675,28.719L0.675,28.719z" />
            </g>
        </g>
    </symbol>
    <symbol viewBox="-14.822 -32.984 29.644 65.967">
        <g>
            <path style="" d="M3.372,9.536h-6.744    c-4.372,0-7.95-3.577-7.95-7.95v-11.902c0-2.108,1.725-3.832,3.832-3.832h0.418v-11.503c0-2.108,1.725-3.832,3.832-3.832h6.478    c2.108,0,3.832,1.725,3.832,3.832v11.503h0.418c2.108,0,3.832,1.725,3.832,3.832V1.586C11.322,5.959,7.745,9.536,3.372,9.536z" fill="#6099A6" stroke="#6099A6" stroke-width="7" stroke-miterlimit="3" />
            <path style="" d="M0.75,14.209h-1.5    c-3.365,0-6.118,2.753-6.118,6.118v3.038c0,3.365,2.753,6.118,6.118,6.118h1.5c3.365,0,6.118-2.753,6.118-6.118v-3.038    C6.868,16.962,4.115,14.209,0.75,14.209z" fill="#6099A6" stroke="#6099A6" stroke-width="7" stroke-miterlimit="3" />
        </g>
        <g>
            <g>
                <path style="" d="M-3.239-27.484c-1.01,0-1.832,0.822-1.832,1.832v13.503h-2.418c-1.01,0-1.832,0.822-1.832,1.832     V1.586c0,3.281,2.669,5.95,5.95,5.95h6.744c3.281,0,5.95-2.669,5.95-5.95v-11.902c0-1.01-0.822-1.832-1.832-1.832H5.071v-13.503     c0-1.01-0.822-1.832-1.832-1.832H-3.239z" fill="#6099A6" />
                <path d="M3.372,5.536c2.178,0,3.95-1.772,3.95-3.95v-11.734h-0.25h-4v-4v-11.336h-6.143v11.336v4h-4h-0.25V1.586     c0,2.178,1.772,3.95,3.95,3.95H3.372 M3.372,9.536h-6.744c-4.372,0-7.95-3.578-7.95-7.95v-11.902     c0-2.108,1.725-3.833,3.833-3.833h0.418v-11.503c0-2.107,1.725-3.833,3.833-3.833h6.478c2.108,0,3.833,1.725,3.833,3.833v11.503     h0.418c2.108,0,3.833,1.725,3.833,3.833V1.586C11.322,5.958,7.745,9.536,3.372,9.536L3.372,9.536z" />
            </g>
            <g>
                <path style="" d="M-0.75,16.209c-2.271,0-4.118,1.847-4.118,4.118v3.038c0,2.271,1.847,4.118,4.118,4.118h1.5     c2.271,0,4.118-1.847,4.118-4.118v-3.038c0-2.271-1.847-4.118-4.118-4.118H-0.75z" fill="#6099A6" />
                <path d="M0.75,25.483c1.148,0,2.118-0.97,2.118-2.118v-3.038c0-1.148-0.97-2.118-2.118-2.118h-1.5     c-1.148,0-2.118,0.97-2.118,2.118v3.038c0,1.148,0.97,2.118,2.118,2.118H0.75 M0.75,29.483h-1.5     c-3.365,0-6.118-2.753-6.118-6.118v-3.038c0-3.365,2.753-6.118,6.118-6.118h1.5c3.365,0,6.118,2.753,6.118,6.118v3.038     C6.868,26.73,4.115,29.483,0.75,29.483L0.75,29.483z" />
            </g>
        </g>
    </symbol>
    <symbol viewBox="-13.754 -32.378 27.509 60.818">
        <g>
            <path style="" d="M6.112,10.396H-6.112    c-2.003,0-3.643-1.639-3.643-3.643V-8.43c0-1.816,1.486-3.302,3.302-3.302h0.36v-13.344c0-1.816,1.486-3.302,3.302-3.302h5.581    c1.816,0,3.302,1.486,3.302,3.302v13.344h0.36c1.816,0,3.302,1.486,3.302,3.302V6.754C9.755,8.757,8.116,10.396,6.112,10.396z" fill="#6099A6" stroke="#6099A6" stroke-width="8" stroke-miterlimit="3" />
            <g>
                <path style="" d="M-0.646,19.281c-0.689,0-1.271,0.582-1.271,1.271v2.617c0,0.689,0.582,1.271,1.271,1.271h1.292     c0.689,0,1.271-0.582,1.271-1.271v-2.617c0-0.689-0.582-1.271-1.271-1.271H-0.646z" fill="#6099A6" />
                <path style="" d="M0.646,28.44h-1.292c-2.899,0-5.271-2.372-5.271-5.271v-2.618c0-2.899,2.372-5.271,5.271-5.271     h1.292c2.899,0,5.271,2.372,5.271,5.271v2.618C5.917,26.068,3.545,28.44,0.646,28.44L0.646,28.44z" fill="#6099A6" />
            </g>
        </g>
        <g>
            <path style="" d="M6.112,10.396H-6.112    c-2.003,0-3.643-1.639-3.643-3.643V-8.43c0-1.816,1.486-3.302,3.302-3.302h0.36v-13.344c0-1.816,1.486-3.302,3.302-3.302h5.581    c1.816,0,3.302,1.486,3.302,3.302v13.344h0.36c1.816,0,3.302,1.486,3.302,3.302V6.754C9.755,8.757,8.116,10.396,6.112,10.396z" fill="#6099A6" stroke="#6099A6" stroke-width="2" stroke-miterlimit="3" />
            <g>
                <path style="" d="M-0.646,16.281c-2.355,0-4.271,1.916-4.271,4.271v2.617c0,2.355,1.916,4.271,4.271,4.271h1.292     c2.355,0,4.271-1.916,4.271-4.271v-2.617c0-2.355-1.916-4.271-4.271-4.271H-0.646z" fill="#6099A6" />
                <path d="M0.646,26.44c1.804,0,3.271-1.467,3.271-3.271v-2.618c0-1.804-1.467-3.271-3.271-3.271h-1.292     c-1.804,0-3.271,1.467-3.271,3.271v2.618c0,1.803,1.467,3.271,3.271,3.271H0.646 M0.646,28.44h-1.292     c-2.899,0-5.271-2.372-5.271-5.271v-2.618c0-2.899,2.372-5.271,5.271-5.271h1.292c2.899,0,5.271,2.372,5.271,5.271v2.618     C5.917,26.068,3.545,28.44,0.646,28.44L0.646,28.44z" />
            </g>
        </g>
    </symbol>
    <g style="" display="none">
        <rect x="-537" y="-887.014" style="" width="1280" height="1310.409" display="inline" fill="#999999" />
    </g>
    <g>
        <path d="M70.994,50.386c4.396,0,7.96-3.564,7.96-7.96c0-4.396-3.564-7.96-7.96-7.96c-4.396,0-7.96,3.564-7.96,7.96   C63.034,46.822,66.597,50.386,70.994,50.386z M70.994,37.622c2.649,0,4.803,2.155,4.803,4.803s-2.155,4.803-4.803,4.803   c-2.649,0-4.803-2.155-4.803-4.803S68.345,37.622,70.994,37.622z" />
        <path d="M21.221,86.383c0.131,0.74,0.773,1.303,1.551,1.303c0.561,0,1.051-0.295,1.331-0.737c0.155-0.244,0.247-0.531,0.247-0.842   v-0.001h0.003v-2.779H24.35V72.645c0-0.871-0.706-1.578-1.578-1.578c-0.872,0-1.578,0.707-1.578,1.578v10.488   c-0.562-0.171-1.13-0.44-1.611-0.803c-0.391-0.287-0.701-0.614-0.91-0.969c-0.154-0.254-0.232-0.5-0.232-0.736V65.104   c0-4.027,3.276-7.303,7.303-7.303h7.523c1.403,0,2.751,0.404,3.915,1.154c-0.746,1.458-1.153,3.079-1.153,4.738v2.147v13.385   c0,1.702,1.036,3.353,2.844,4.533c0.947,0.616,2.022,1.038,3.069,1.219v6.297h3.157v-9.355h-0.003V71.242   c0-0.871-0.706-1.578-1.578-1.578c-0.872,0-1.578,0.707-1.578,1.578v10.488c-0.462-0.14-0.93-0.347-1.345-0.618   c-0.869-0.566-1.409-1.29-1.409-1.887V63.693c0-1.728,0.62-3.404,1.746-4.719c1.401-1.635,3.426-2.573,5.557-2.573h7.523   c2.418,0,4.68,1.204,6.051,3.225c0.819,1.202,1.252,2.608,1.252,4.067v15.532c0,0.792-0.927,1.767-2.185,2.31   c-0.192,0.08-0.38,0.128-0.569,0.184V71.242c0-0.871-0.706-1.578-1.578-1.578c-0.872,0-1.578,0.707-1.578,1.578v10.677h-0.003   v9.355h3.157v-6.298c0.588-0.102,1.196-0.281,1.803-0.534c2.497-1.077,4.11-3.125,4.11-5.216V65.84v-2.147   c0-1.664-0.408-3.275-1.159-4.735c1.163-0.752,2.515-1.157,3.921-1.157h7.524c4.027,0,7.303,3.276,7.303,7.303v15.521   c0,0.234-0.079,0.482-0.245,0.755c-0.197,0.335-0.508,0.663-0.917,0.963c-0.47,0.354-1.033,0.62-1.593,0.79V72.645   c0-0.871-0.706-1.578-1.578-1.578c-0.872,0-1.578,0.707-1.578,1.578v10.684h-0.003v2.779h1.578h0.001v0.378h0.463   c1.541,0,3.266-0.606,4.594-1.609c0.734-0.537,1.34-1.192,1.742-1.874c0.195-0.321,0.34-0.651,0.453-0.986   c0.453-0.559,0.901-1.123,1.322-1.699c5.994-8.161,8.996-17.84,8.68-27.989c-0.375-12.017-5.405-23.167-14.165-31.396   c-8.76-8.23-20.206-12.576-32.213-12.18c-12.014,0.374-23.163,5.403-31.393,14.161c-8.231,8.758-12.558,20.2-12.184,32.217   c0.315,10.143,3.914,19.613,10.404,27.385l0.211-0.177c0.092,0.219,0.197,0.435,0.325,0.644c0.413,0.701,1.019,1.355,1.736,1.88   C18.735,85.644,19.993,86.176,21.221,86.383z M15.282,65.104v11.965c-4.409-6.511-6.856-14.047-7.105-22.038   c-0.348-11.174,3.675-21.813,11.329-29.957c7.652-8.144,18.02-12.819,29.191-13.167c11.162-0.329,21.808,3.674,29.953,11.325   c8.146,7.652,12.823,18.021,13.171,29.195c0.267,8.566-2.015,16.768-6.607,23.885V65.104c0-5.768-4.692-10.46-10.459-10.46h-7.524   c-2.08,0-4.074,0.618-5.773,1.755c-1.953-1.991-4.619-3.155-7.449-3.155h-7.523c-2.812,0-5.484,1.147-7.453,3.152   c-1.7-1.137-3.691-1.752-5.768-1.752h-7.523C19.974,54.644,15.282,59.336,15.282,65.104z" />
        <path d="M29.503,50.386c4.396,0,7.96-3.564,7.96-7.96c0-4.396-3.564-7.96-7.96-7.96s-7.96,3.564-7.96,7.96   C21.543,46.822,25.107,50.386,29.503,50.386z M29.503,37.622c2.649,0,4.803,2.155,4.803,4.803s-2.155,4.803-4.803,4.803   S24.7,45.074,24.7,42.426S26.855,37.622,29.503,37.622z" />
        <path d="M50.249,48.983c4.396,0,7.96-3.564,7.96-7.96c0-4.396-3.564-7.96-7.96-7.96s-7.96,3.564-7.96,7.96   C42.289,45.419,45.852,48.983,50.249,48.983z M50.249,36.219c2.649,0,4.803,2.155,4.803,4.803s-2.155,4.803-4.803,4.803   s-4.803-2.155-4.803-4.803S47.6,36.219,50.249,36.219z" />
    </g>
    <!-- <text x="0" y="115" fill="#6099A6" font-size="5px" font-weight="bold" font-family="'Helvetica Neue', Helvetica, Arial-Unicode, Arial, Sans-serif">Created by Oksana Latysheva</text>
    <text x="0" y="120" fill="#6099A6" font-size="5px" font-weight="bold" font-family="'Helvetica Neue', Helvetica, Arial-Unicode, Arial, Sans-serif">from the Noun Project</text> -->
</svg>
